<svg width="16" height="16" viewBox="0 0 16 16" fill="none" xmlns="http://www.w3.org/2000/svg">
<rect width="16" height="16" fill="#E5E5E5"/>
<g id="Frame 7" clip-path="url(#clip0_0_1)">
<rect width="1250" height="1560" transform="translate(-872 -609)" fill="#E7F6FF"/>
<g id="Rectangle 17" filter="url(#filter0_d_0_1)">
<rect x="-787" y="-524" width="1080" height="1526" rx="20" fill="white"/>
</g>
<g id="Group">
<path id="Vector" d="M15.25 15.25L11.8855 11.8795L15.25 15.25ZM13.75 7.375C13.75 9.06576 13.0784 10.6873 11.8828 11.8828C10.6873 13.0784 9.06576 13.75 7.375 13.75C5.68424 13.75 4.06274 13.0784 2.86719 11.8828C1.67165 10.6873 1 9.06576 1 7.375C1 5.68424 1.67165 4.06274 2.86719 2.86719C4.06274 1.67165 5.68424 1 7.375 1C9.06576 1 10.6873 1.67165 11.8828 2.86719C13.0784 4.06274 13.75 5.68424 13.75 7.375V7.375Z" stroke="#E4E4E4" stroke-width="2" stroke-linecap="round"/>
</g>
<g id="Group 110">
</g>
<rect id="Rectangle 30" x="-16.5" y="-13.5" width="249" height="44" rx="9.5" stroke="#F3F3F3"/>
</g>
<defs>
<filter id="filter0_d_0_1" x="-807" y="-534" width="1120" height="1566" filterUnits="userSpaceOnUse" color-interpolation-filters="sRGB">
<feFlood flood-opacity="0" result="BackgroundImageFix"/>
<feColorMatrix in="SourceAlpha" type="matrix" values="0 0 0 0 0 0 0 0 0 0 0 0 0 0 0 0 0 0 127 0" result="hardAlpha"/>
<feOffset dy="10"/>
<feGaussianBlur stdDeviation="10"/>
<feColorMatrix type="matrix" values="0 0 0 0 0 0 0 0 0 0 0 0 0 0 0 0 0 0 0.04 0"/>
<feBlend mode="normal" in2="BackgroundImageFix" result="effect1_dropShadow_0_1"/>
<feBlend mode="normal" in="SourceGraphic" in2="effect1_dropShadow_0_1" result="shape"/>
</filter>
<clipPath id="clip0_0_1">
<rect width="1250" height="1560" fill="white" transform="translate(-872 -609)"/>
</clipPath>
</defs>
</svg>
